<svg width="22" height="22" viewBox="0 0 22 22" fill="none" xmlns="http://www.w3.org/2000/svg">
<g id="Frame">
<path id="iconFill" fill-rule="evenodd" clip-rule="evenodd" d="M17.3639 4.636C16.1052 3.37734 14.5016 2.52019 12.7558 2.17293C11.0099 1.82567 9.20035 2.00391 7.55582 2.6851C5.91129 3.36629 4.50569 4.51984 3.51677 5.99988C2.52784 7.47992 2 9.21998 2 11C2 12.78 2.52784 14.5201 3.51677 16.0001C4.50569 17.4802 5.91129 18.6337 7.55582 19.3149C9.20035 19.9961 11.0099 20.1743 12.7558 19.8271C14.5016 19.4798 16.1052 18.6227 17.3639 17.364C18.1997 16.5283 18.8626 15.5361 19.3149 14.4442C19.7672 13.3522 20 12.1819 20 11C20 9.8181 19.7672 8.64777 19.3149 7.55583C18.8626 6.46389 18.1997 5.47173 17.3639 4.636ZM14.5359 15.243C14.4895 15.2896 14.4343 15.3265 14.3736 15.3517C14.3128 15.3769 14.2477 15.3899 14.1819 15.3899C14.1162 15.3899 14.051 15.3769 13.9903 15.3517C13.9295 15.3265 13.8744 15.2896 13.8279 15.243L10.9999 12.414L8.17192 15.243C8.12548 15.2896 8.0703 15.3265 8.00956 15.3517C7.94881 15.3769 7.88369 15.3899 7.81792 15.3899C7.75215 15.3899 7.68703 15.3769 7.62629 15.3517C7.56554 15.3265 7.51037 15.2896 7.46392 15.243L6.75692 14.536C6.71036 14.4896 6.67342 14.4344 6.64821 14.3736C6.623 14.3129 6.61003 14.2478 6.61003 14.182C6.61003 14.1162 6.623 14.0511 6.64821 13.9904C6.67342 13.9296 6.71036 13.8744 6.75692 13.828L9.58592 11L6.75692 8.172C6.71036 8.12556 6.67342 8.07038 6.64821 8.00964C6.623 7.94889 6.61003 7.88377 6.61003 7.818C6.61003 7.75224 6.623 7.68712 6.64821 7.62637C6.67342 7.56562 6.71036 7.51045 6.75692 7.464L7.46392 6.757C7.51037 6.71044 7.56554 6.6735 7.62629 6.64829C7.68703 6.62308 7.75215 6.61011 7.81792 6.61011C7.88369 6.61011 7.94881 6.62308 8.00956 6.64829C8.0703 6.6735 8.12548 6.71044 8.17192 6.757L10.9999 9.586L13.8279 6.757C13.8744 6.71044 13.9295 6.6735 13.9903 6.64829C14.051 6.62308 14.1162 6.61011 14.1819 6.61011C14.2477 6.61011 14.3128 6.62308 14.3736 6.64829C14.4343 6.6735 14.4895 6.71044 14.5359 6.757L15.2429 7.464C15.2895 7.51045 15.3264 7.56562 15.3516 7.62637C15.3768 7.68712 15.3898 7.75224 15.3898 7.818C15.3898 7.88377 15.3768 7.94889 15.3516 8.00964C15.3264 8.07038 15.2895 8.12556 15.2429 8.172L12.4139 11L15.2429 13.828C15.2895 13.8744 15.3264 13.9296 15.3516 13.9904C15.3768 14.0511 15.3898 14.1162 15.3898 14.182C15.3898 14.2478 15.3768 14.3129 15.3516 14.3736C15.3264 14.4344 15.2895 14.4896 15.2429 14.536L14.5359 15.243Z" fill="#222222"/>
</g>
</svg>
