<svg width="0" height="0" xmlns="http://www.w3.org/2000/svg" style="position:absolute;">
  <symbol id="events-calendar" viewBox="0 0 28 28">
    <g id="Frame" clip-path="url(#clip0_5860_50605)">
      <path id="iconFill" fill-rule="evenodd" clip-rule="evenodd" d="M25.6667 4.66678H21.7778V2.33344C21.7778 2.12716 21.6958 1.92933 21.55 1.78347C21.4041 1.63761 21.2063 1.55566 21 1.55566H19.4444C19.2382 1.55566 19.0403 1.63761 18.8945 1.78347C18.7486 1.92933 18.6667 2.12716 18.6667 2.33344V4.66678H7.77778V2.33344C7.77778 2.12716 7.69583 1.92933 7.54997 1.78347C7.40411 1.63761 7.20628 1.55566 7 1.55566H5.44444C5.23816 1.55566 5.04033 1.63761 4.89447 1.78347C4.74861 1.92933 4.66667 2.12716 4.66667 2.33344V4.66678H0.777778C0.571498 4.66678 0.373667 4.74872 0.227806 4.89458C0.0819442 5.04044 0 5.23827 0 5.44455L0 25.6668C0 25.8731 0.0819442 26.0709 0.227806 26.2167C0.373667 26.3626 0.571498 26.4446 0.777778 26.4446H25.6667C25.8729 26.4446 26.0708 26.3626 26.2166 26.2167C26.3625 26.0709 26.4444 25.8731 26.4444 25.6668V5.44455C26.4444 5.23827 26.3625 5.04044 26.2166 4.89458C26.0708 4.74872 25.8729 4.66678 25.6667 4.66678ZM24.8889 24.889H1.55556V6.22233H4.66667V7.00011C4.66667 7.20639 4.74861 7.40422 4.89447 7.55008C5.04033 7.69594 5.23816 7.77789 5.44444 7.77789H7C7.20628 7.77789 7.40411 7.69594 7.54997 7.55008C7.69583 7.40422 7.77778 7.20639 7.77778 7.00011V6.22233H18.6667V7.00011C18.6667 7.20639 18.7486 7.40422 18.8945 7.55008C19.0403 7.69594 19.2382 7.77789 19.4444 7.77789H21C21.2063 7.77789 21.4041 7.69594 21.55 7.55008C21.6958 7.40422 21.7778 7.20639 21.7778 7.00011V6.22233H24.8889V24.889Z" fill="currentColor"/>
      <path id="iconFill_2" d="M7.7781 9.33301H4.66699V12.4441H7.7781V9.33301Z" fill="currentColor"/>
      <path id="iconFill_3" d="M12.4441 9.33301H9.33301V12.4441H12.4441V9.33301Z" fill="currentColor"/>
      <path id="iconFill_4" d="M17.1111 9.33301H14V12.4441H17.1111V9.33301Z" fill="currentColor"/>
      <path id="iconFill_5" d="M21.7781 9.33301H18.667V12.4441H21.7781V9.33301Z" fill="currentColor"/>
      <path id="iconFill_6" d="M7.7781 14H4.66699V17.1111H7.7781V14Z" fill="currentColor"/>
      <path id="iconFill_7" d="M12.4441 14H9.33301V17.1111H12.4441V14Z" fill="currentColor"/>
      <path id="iconFill_8" d="M17.1111 14H14V17.1111H17.1111V14Z" fill="currentColor"/>
      <path id="iconFill_9" d="M21.7781 14H18.667V17.1111H21.7781V14Z" fill="currentColor"/>
      <path id="iconFill_10" d="M7.7781 18.667H4.66699V21.7781H7.7781V18.667Z" fill="currentColor"/>
      <path id="iconFill_11" d="M12.4441 18.667H9.33301V21.7781H12.4441V18.667Z" fill="currentColor"/>
      <path id="iconFill_12" d="M17.1111 18.667H14V21.7781H17.1111V18.667Z" fill="currentColor"/>
      <path id="iconFill_13" d="M21.7781 18.667H18.667V21.7781H21.7781V18.667Z" fill="currentColor"/>
    </g>
    <defs>
      <clipPath id="clip0_5860_50605">
        <rect width="28" height="28" fill="currentColor"/>
      </clipPath>
    </defs>
  </symbol>
</svg>
