<?xml version="1.0" encoding="utf-8"?>
<svg version="1.1" xmlns="http://www.w3.org/2000/svg" xmlns:xlink="http://www.w3.org/1999/xlink">

<symbol id="facebook" viewBox="0 0 30 30">
    <path d="M15,3C8.373,3,3,8.373,3,15c0,6.016,4.432,10.984,10.206,11.852V18.18h-2.969v-3.154h2.969v-2.099c0-3.475,1.693-5,4.581-5 c1.383,0,2.115,0.103,2.461,0.149v2.753h-1.97c-1.226,0-1.654,1.163-1.654,2.473v1.724h3.593L19.73,18.18h-3.106v8.697 C22.481,26.083,27,21.075,27,15C27,8.373,21.627,3,15,3z"></path>
</symbol>

<symbol id="instagram"  viewBox="0 0 36 36">
  <path id="Path 183682" d="M25.3419 0H9.65806C7.09753 0.00308746 4.64276 1.02162 2.83219 2.83219C1.02162 4.64276 0.00308746 7.09753 0 9.65806L0 25.34C0.00257291 27.9009 1.02088 30.3561 2.8315 32.1671C4.64213 33.9781 7.09719 34.9969 9.65806 35H25.34C27.9009 34.9974 30.3561 33.9791 32.1671 32.1685C33.9781 30.3579 34.9969 27.9028 35 25.3419V9.65806C34.9969 7.09753 33.9784 4.64276 32.1678 2.83219C30.3572 1.02162 27.9025 0.00308746 25.3419 0ZM31.8889 25.3419C31.8868 27.0792 31.1958 28.7447 29.9674 29.9732C28.7389 31.2016 27.0734 31.8927 25.3361 31.8947H9.65806C7.92078 31.8927 6.25525 31.2016 5.02682 29.9732C3.79838 28.7447 3.10734 27.0792 3.10528 25.3419V9.65806C3.10888 7.92179 3.8006 6.25776 5.02887 5.03058C6.25714 3.80341 7.92179 3.11317 9.65806 3.11111H25.34C27.0773 3.11317 28.7428 3.80421 29.9712 5.03265C31.1997 6.26109 31.8907 7.92662 31.8928 9.66389V25.3458L31.8889 25.3419Z" fill="currentColor"/>
  <path id="Path 183683" d="M17.5027 8.48242C15.7191 8.48242 13.9755 9.01134 12.4924 10.0023C11.0093 10.9932 9.85343 12.4017 9.17086 14.0496C8.48828 15.6975 8.30969 17.5108 8.65766 19.2601C9.00564 21.0095 9.86455 22.6164 11.1258 23.8777C12.387 25.1389 13.9939 25.9978 15.7433 26.3458C17.4927 26.6938 19.306 26.5152 20.9539 25.8326C22.6018 25.15 24.0102 23.9941 25.0012 22.5111C25.9921 21.028 26.521 19.2844 26.521 17.5008C26.5185 15.1097 25.5675 12.8174 23.8768 11.1267C22.1861 9.43596 19.8937 8.485 17.5027 8.48242ZM17.5027 23.4138C16.3332 23.4138 15.19 23.067 14.2176 22.4173C13.2452 21.7675 12.4873 20.8441 12.0398 19.7636C11.5922 18.6831 11.4751 17.4942 11.7033 16.3472C11.9314 15.2001 12.4946 14.1465 13.3216 13.3196C14.1485 12.4926 15.2021 11.9295 16.3491 11.7013C17.4962 11.4732 18.6851 11.5903 19.7655 12.0378C20.846 12.4853 21.7695 13.2432 22.4192 14.2156C23.069 15.188 23.4158 16.3313 23.4158 17.5008C23.4142 19.0685 22.7908 20.5716 21.6822 21.6802C20.5736 22.7888 19.0705 23.4123 17.5027 23.4138Z" fill="currentColor"/>
  <path id="Path 183684" d="M24.4372 4.02539C23.9104 4.02537 23.3999 4.20801 22.9927 4.54218C22.5855 4.87635 22.3067 5.34139 22.2039 5.85805C22.1011 6.37471 22.1807 6.91102 22.429 7.37561C22.6773 7.8402 23.079 8.20432 23.5657 8.40593C24.0524 8.60754 24.5939 8.63416 25.098 8.48126C25.6021 8.32835 26.0376 8.00539 26.3303 7.56739C26.623 7.1294 26.7547 6.60347 26.7031 6.07922C26.6515 5.55497 26.4197 5.06484 26.0472 4.69234C25.6196 4.26622 25.0409 4.02648 24.4372 4.02539Z" fill="black"/>
</symbol>

<symbol id="twitter" viewBox="0 0 35 35">
  <path fill="currentColor" d="M29.167,10.983a10.11,10.11,0,0,1-2.757.775,4.662,4.662,0,0,0,2.119-2.666,9.545,9.545,0,0,1-3.053,1.162,4.55,4.55,0,0,0-3.486-1.5A4.785,4.785,0,0,0,17.2,13.535a4.436,4.436,0,0,0,.114,1.094A13.544,13.544,0,0,1,11.8,13.148,13.581,13.581,0,0,1,7.428,9.616a4.747,4.747,0,0,0-.661,2.415,4.512,4.512,0,0,0,2.074,3.988,5.644,5.644,0,0,1-2.279-.592v.046A4.554,4.554,0,0,0,7.7,18.514a4.777,4.777,0,0,0,2.8,1.652,4.468,4.468,0,0,1-1.162.182,6.279,6.279,0,0,1-.889-.091,4.856,4.856,0,0,0,1.7,2.37,4.56,4.56,0,0,0,2.769.957,9.452,9.452,0,0,1-5.947,2.051,9.193,9.193,0,0,1-1.139-.068,13.419,13.419,0,0,0,7.337,2.142,13.919,13.919,0,0,0,4.785-.809,12.343,12.343,0,0,0,3.828-2.165,14.371,14.371,0,0,0,2.746-3.122A13.789,13.789,0,0,0,26.8,14.082a5.856,5.856,0,0,0-.023-.615A9.289,9.289,0,0,0,29.167,10.983ZM35,6.563V28.438A6.574,6.574,0,0,1,28.438,35H6.563a6.324,6.324,0,0,1-4.637-1.925A6.324,6.324,0,0,1,0,28.438V6.563A6.324,6.324,0,0,1,1.925,1.925,6.324,6.324,0,0,1,6.563,0H28.438a6.324,6.324,0,0,1,4.637,1.925A6.324,6.324,0,0,1,35,6.563Z"/>
</symbol>

<symbol id="linkedin" viewBox="0 0 35 35">
  <path fill="currentColor" d="M5.4,29.3h5.264V13.49H5.4Zm5.605-20.69a2.7,2.7,0,0,0-.82-1.96,2.906,2.906,0,0,0-2.119-.775,3.027,3.027,0,0,0-2.153.775,2.565,2.565,0,0,0-.832,1.96,2.6,2.6,0,0,0,.809,1.948A2.9,2.9,0,0,0,8,11.348h.023a3,3,0,0,0,2.165-.786A2.59,2.59,0,0,0,11.006,8.613ZM24.336,29.3H29.6V20.234a7.564,7.564,0,0,0-1.663-5.309,5.7,5.7,0,0,0-4.4-1.8,5.3,5.3,0,0,0-4.762,2.666h.046v-2.3H13.558q.068,1.5,0,15.814h5.264V20.462a3.753,3.753,0,0,1,.16-1.276,3.517,3.517,0,0,1,1.025-1.356,2.584,2.584,0,0,1,1.686-.558q2.642,0,2.643,3.577ZM35,6.563V28.438A6.574,6.574,0,0,1,28.438,35H6.563a6.324,6.324,0,0,1-4.637-1.925A6.324,6.324,0,0,1,0,28.438V6.563A6.324,6.324,0,0,1,1.925,1.925,6.324,6.324,0,0,1,6.563,0H28.438a6.324,6.324,0,0,1,4.637,1.925A6.324,6.324,0,0,1,35,6.563Z"/>
</symbol>

<symbol id="pinterest" viewBox="0 0 35 35">
  <path fill="currentColor" d="M27.7,0H7.3C3.3,0,0,3.3,0,7.3v20.4c0,4,3.3,7.3,7.3,7.3h20.4c4,0,7.3-3.3,7.3-7.3V7.3C35,3.3,31.7,0,27.7,0z M17.7,29.3
	c-1.2,0-2.4-0.2-3.4-0.5c0.5-0.8,1.2-2.1,1.5-3.2c0.1-0.5,0.7-2.8,0.7-2.8c0.4,0.7,1.5,1.3,2.7,1.3c3.5,0,6-3.2,6-7.2
	S22,10.3,18,10.3c-5,0-7.7,3.4-7.7,7c0,1.7,0.9,3.8,2.4,4.5c0.2,0.1,0.3,0.1,0.4-0.2c0-0.2,0.2-1,0.3-1.3c0-0.1,0-0.2-0.1-0.3
	c-0.5-0.6-0.9-1.7-0.9-2.7c0-2.6,1.9-5,5.3-5c2.9,0,4.9,2,4.9,4.7c0,3.1-1.6,5.3-3.7,5.3c-1.1,0-2-0.9-1.7-2.1c0.3-1.4,1-2.9,1-3.9
	c0-0.9-0.5-1.6-1.5-1.6c-1.2,0-2.1,1.2-2.1,2.8c0,1,0.3,1.7,0.3,1.7s-1.2,4.9-1.4,5.8c-0.2,1.1-0.1,2.6,0,3.5
	C9.1,26.9,6,22.6,6,17.6C6,11.2,11.2,6,17.6,6s11.7,5.2,11.7,11.7S24.1,29.3,17.7,29.3L17.7,29.3z"/>
</symbol>

<symbol id="discord" viewBox="0 0 35 35">
  <g>
    <path fill="currentColor" d="M22.1,15.7c-1.4,0-2.5,1.3-2.5,2.8s1.1,2.8,2.5,2.8c1.4,0,2.5-1.3,2.5-2.8C24.6,17,23.5,15.7,22.1,15.7z"/>
    <path fill="currentColor" d="M12.9,15.7c-1.4,0-2.5,1.3-2.5,2.8s1.1,2.8,2.5,2.8c1.4,0,2.5-1.3,2.5-2.8C15.4,17,14.3,15.7,12.9,15.7z"/>
    <path fill="currentColor" d="M27.7,0H7.3C3.3,0,0,3.3,0,7.3v20.4c0,4,3.3,7.3,7.3,7.3h20.4c4,0,7.3-3.3,7.3-7.3V7.3C35,3.3,31.7,0,27.7,0z
      M31.3,24.5C31.2,24.5,31.2,24.5,31.3,24.5c-2.4,1.8-4.7,2.9-7,3.6c0,0-0.1,0-0.1,0c-0.5-0.7-1-1.5-1.4-2.3c0,0,0-0.1,0-0.1
      c0.8-0.3,1.5-0.6,2.2-1c0.1,0,0.1-0.1,0-0.1c-0.1-0.1-0.3-0.2-0.4-0.3c0,0-0.1,0-0.1,0c-4.5,2.1-9.4,2.1-13.9,0c0,0-0.1,0-0.1,0
      c-0.1,0.1-0.3,0.2-0.4,0.3c-0.1,0,0,0.1,0,0.1c0.7,0.4,1.4,0.7,2.2,1c0,0,0.1,0.1,0,0.1c-0.4,0.8-0.9,1.6-1.4,2.3c0,0-0.1,0-0.1,0
      c-2.3-0.7-4.6-1.8-6.9-3.5c0,0,0,0,0-0.1C3.3,19.3,4.2,14.1,7.8,8.7c0,0,0,0,0,0c1.8-0.8,3.7-1.4,5.6-1.8c0,0,0.1,0,0.1,0
      c0.2,0.4,0.5,1,0.7,1.4c2.1-0.3,4.2-0.3,6.3,0c0.2-0.4,0.5-1,0.7-1.4c0,0,0.1,0,0.1,0c2,0.3,3.9,0.9,5.6,1.8c0,0,0,0,0,0
      C30.3,13.3,31.8,18.5,31.3,24.5z"/>
  </g>
</symbol>

<symbol id="behance" viewBox="0 0 35 35">
  <path fill="currentColor" d="M12,21.9H8.8V19H12C14.8,19,15,21.9,12,21.9z M21.9,18h4.4C26.1,15.5,22.3,15.1,21.9,18z M11.9,13.1H8.8V16h3.5
    C14.7,16,15.1,13.1,11.9,13.1z M35,7.3v20.4c0,4-3.3,7.3-7.3,7.3H7.3c-4,0-7.3-3.3-7.3-7.3V7.3C0,3.3,3.3,0,7.3,0h20.4
    C31.7,0,35,3.3,35,7.3z M20.4,11.7h7.3v-1.5h-7.3V11.7z M15.2,16.9c2.8-1.4,2.7-6.6-2.6-6.7H5.8v14.6h6.3
    C18.7,24.8,18.6,18.2,15.2,16.9z M29.1,17.8c-0.4-2.6-2.2-4.3-5.2-4.3c-3.1,0-4.9,2-4.9,5.8c0,3.8,2,5.5,5,5.5s4.5-1.7,5-2.9h-3.1
    c-1.1,1.2-4.2,0.8-4-2h7.4C29.2,19,29.1,18.3,29.1,17.8z"/>
</symbol>

<symbol id="youtube" viewBox="0 0 24 24">
     <path d="M21.582,6.186c-0.23-0.86-0.908-1.538-1.768-1.768C18.254,4,12,4,12,4S5.746,4,4.186,4.418 c-0.86,0.23-1.538,0.908-1.768,1.768C2,7.746,2,12,2,12s0,4.254,0.418,5.814c0.23,0.86,0.908,1.538,1.768,1.768 C5.746,20,12,20,12,20s6.254,0,7.814-0.418c0.861-0.23,1.538-0.908,1.768-1.768C22,16.254,22,12,22,12S22,7.746,21.582,6.186z M10,14.598V9.402c0-0.385,0.417-0.625,0.75-0.433l4.5,2.598c0.333,0.192,0.333,0.674,0,0.866l-4.5,2.598 C10.417,15.224,10,14.983,10,14.598z"></path>
</symbol>

<symbol id="weibo" viewBox="0 0 18 18">
  <path fill="currentColor" d="M15.943 3.354a4.1 4.1 0 0 0-3.9-1.264.593.593 0 1 0 .248 1.159A2.917 2.917 0 0 1 15.671 7a.593.593 0 0 0 1.129.366 4.091 4.091 0 0 0-.857-4.012Z"/>
  <path fill="currentColor" d="M14.38 4.766a1.991 1.991 0 0 0-1.9-.614.51.51 0 1 0 .211 1 .976.976 0 0 1 1.134 1.256.511.511 0 1 0 .973.314 2 2 0 0 0-.418-1.956ZM8.154 10.587a.368.368 0 0 1-.442.162.258.258 0 0 1-.114-.385.367.367 0 0 1 .432-.164.259.259 0 0 1 .124.387Zm-.819 1.048a.976.976 0 0 1-1.18.387A.682.682 0 0 1 5.892 11a.976.976 0 0 1 1.157-.389.684.684 0 0 1 .286 1.024Zm.933-2.8A2.793 2.793 0 0 0 5.137 10.2a1.9 1.9 0 0 0 1.215 2.713 2.77 2.77 0 0 0 3.308-1.4 1.913 1.913 0 0 0-1.392-2.68Z"/>
  <path fill="currentColor" d="M8.013 13.636c-2.566.255-4.781-.907-4.948-2.59s1.779-3.254 4.343-3.509 4.782.907 4.947 2.59-1.778 3.257-4.342 3.509Zm5.131-5.592c-.219-.066-.368-.109-.255-.4a1.615 1.615 0 0 0 0-1.544c-.5-.718-1.879-.68-3.458-.019 0 0-.5.216-.367-.175A1.787 1.787 0 0 0 8.9 4.1c-.856-.857-3.133.032-5.086 1.985a6.7 6.7 0 0 0-2.314 4.35C1.5 13 4.788 14.556 8 14.556c4.215 0 7.018-2.449 7.018-4.393a2.35 2.35 0 0 0-1.874-2.119Z"/>
</symbol>

<symbol id="social-media" viewBox="0 0 24 24">
  <path fill="currentColor" d="M16.5 8.1c-1-2.6-3.9-4.5-7.4-4.5-4.3 0-7.7 2.8-7.7 6.4 0 1.9 1 3.7 2.7 4.8L3 17.2l2.9-1.5c1 .4 2.1.6 3.2.6h.8c-.4-.7-.6-1.5-.6-2.4 0-3.2 3.1-5.8 6.9-5.8h.3zM5.8 7.5c0-.4.3-.8.8-.8.4 0 .8.3.8.8 0 .4-.3.8-.8.8-.4-.1-.8-.4-.8-.8zm4.8 0c0-.4.3-.8.8-.8.4 0 .8.3.8.8 0 .4-.3.8-.8.8-.4-.1-.8-.4-.8-.8zm7.7 11.6c-.7.2-1.4.3-2.1.3-3.6 0-6.5-2.5-6.5-5.5s2.9-5.5 6.5-5.5 6.5 2.5 6.5 5.5c0 1.8-1.1 3.4-2.7 4.4l.8 2.1-2.5-1.3zm-4.6-6.6c.4 0 .7-.3.7-.7s-.3-.7-.7-.7c-.4 0-.7.3-.7.7s.3.7.7.7zm4.5 0c.4 0 .7-.3.7-.7s-.3-.7-.7-.7-.7.3-.7.7.3.7.7.7z"/>
</symbol>

<symbol id="web" viewBox="0 0 20 20" fill="none">
  <path d="M5.31299 18.7475C4.27197 18.7475 3.23194 18.3511 2.43994 17.5591C0.855958 15.9751 0.855958 13.397 2.43994 11.812L6.34521 7.90673C7.93017 6.32275 10.5073 6.32372 12.0923 7.90673C12.3091 8.1245 12.4995 8.36376 12.6587 8.61669C12.8794 8.96728 12.7739 9.43017 12.4233 9.65087C12.0708 9.87255 11.6099 9.76513 11.3892 9.41552C11.2886 9.25536 11.1675 9.104 11.0298 8.9663C10.0308 7.96728 8.40478 7.96825 7.40576 8.96728L3.50049 12.8725C2.50147 13.8725 2.50147 15.4995 3.50049 16.4985C4.50147 17.4995 6.12744 17.4956 7.12647 16.4985L9.07862 14.5464C9.37159 14.2534 9.8462 14.2534 10.1392 14.5464C10.4321 14.8393 10.4321 15.314 10.1392 15.6069L8.18702 17.5591C7.39503 18.3511 6.354 18.7466 5.31299 18.7475ZM13.6538 12.0923L17.5591 8.18701C19.1431 6.60205 19.1431 4.02392 17.5591 2.43994C15.9751 0.855958 13.396 0.855958 11.812 2.43994L9.85986 4.39209C9.56689 4.68506 9.56689 5.15967 9.85986 5.45264C10.1528 5.74561 10.6274 5.74561 10.9204 5.45264L12.8726 3.50049C13.8716 2.50244 15.4976 2.50049 16.4985 3.50049C17.4976 4.49951 17.4976 6.12647 16.4985 7.12647L12.5933 11.0317C11.5942 12.0308 9.96827 12.0317 8.96925 11.0327C8.83155 10.895 8.71046 10.7437 8.60987 10.5835C8.38917 10.2339 7.92823 10.1265 7.57569 10.3481C7.2251 10.5688 7.11964 11.0317 7.34034 11.3823C7.49952 11.6353 7.68995 11.8745 7.90675 12.0923C8.69972 12.8843 9.73976 13.2808 10.7808 13.2808C11.8208 13.2808 12.8618 12.8843 13.6538 12.0923Z" fill="#292929"/>
</symbol>

<symbol id="x" viewBox="0 0 35 35">
  <path fill="currentColor" d="M28.5 0h-22C2.9 0 0 2.9 0 6.5v22C0 32.1 2.9 35 6.5 35h22c3.6 0 6.5-2.9 6.5-6.5v-22C35 2.9 32.1 0 28.5 0zM30 30.4h-5.9c-.3 0-.6-.1-.8-.4L16 21l-7.3 9.1c-.2.2-.5.4-.8.4-.2 0-.4-.1-.6-.2-.4-.3-.5-1-.2-1.4l7.6-9.5L4.2 6.2c-.4-.4-.3-1.1.1-1.4.2-.2.4-.2.7-.2h5.9c.3 0 .6.1.8.4l7.3 9 7.3-9.1c.3-.4 1-.5 1.4-.2.4.3.5 1 .2 1.4l-7.6 9.5 10.5 13.1c.2.2.3.4.3.7-.1.6-.5 1-1.1 1zm-2.1-2h-3.3L7.1 6.6h3.3l17.5 21.8z"></path>
</symbol>

<symbol id="tiktok" viewBox="0 0 17.151 20">
  <title>Tiktok</title>
  <desc>Tiktok Logo</desc>
  <path fill="currentcolor" d="M13.074,0c.33,2.838,1.914,4.53,4.668,4.71V7.9a7.3,7.3,0,0,1-4.62-1.35v5.97c0,7.584-8.268,9.954-11.592,4.518C-.606,13.542.7,7.4,7.554,7.158v3.366a9.914,9.914,0,0,0-1.59.39A2.713,2.713,0,0,0,3.816,14.1c.462,3.264,6.45,4.23,5.952-2.148V.006h3.306Z"/>
</symbol>
</svg>
