<svg width="118" height="118" viewBox="0 0 118 118" fill="none" xmlns="http://www.w3.org/2000/svg">
<g opacity="0.2">
<path d="M45.9062 0.644531C51.941 0.644589 56.8328 5.53661 56.833 11.5713V106.427C56.833 112.462 51.9411 117.353 45.9062 117.354H11.4482C5.41353 117.353 0.521484 112.462 0.521484 106.427V11.5713C0.521684 5.5367 5.41365 0.644731 11.4482 0.644531H45.9062ZM11.4482 2.64453C6.51822 2.64473 2.52168 6.64127 2.52148 11.5713V106.427C2.52148 111.357 6.5181 115.353 11.4482 115.354H45.9062C50.8365 115.353 54.833 111.357 54.833 106.427V11.5713C54.8328 6.64118 50.8364 2.64459 45.9062 2.64453H11.4482ZM31.665 104.826C33.3982 104.914 34.7764 106.348 34.7764 108.103L34.7725 108.271C34.6845 110.005 33.251 111.383 31.4961 111.383H25.8545C24.0996 111.383 22.6661 110.005 22.5781 108.271L22.5742 108.103C22.5742 106.291 24.0429 104.822 25.8545 104.822H31.4961L31.665 104.826ZM25.8545 105.822C24.5952 105.822 23.5742 106.843 23.5742 108.103L23.5859 108.336C23.7029 109.486 24.674 110.383 25.8545 110.383H31.4961C32.7554 110.383 33.7763 109.362 33.7764 108.103L33.7646 107.869C33.6556 106.796 32.8025 105.943 31.7295 105.834L31.4961 105.822H25.8545ZM34.4336 6.30859C34.7097 6.30859 34.9336 6.53245 34.9336 6.80859C34.9336 8.25338 33.7622 9.4248 32.3174 9.4248H24.0459C22.6011 9.4248 21.4297 8.25338 21.4297 6.80859C21.4297 6.53245 21.6535 6.30859 21.9297 6.30859C22.2058 6.30859 22.4297 6.53245 22.4297 6.80859C22.4297 7.70109 23.1534 8.4248 24.0459 8.4248H32.3174C33.2099 8.4248 33.9336 7.70109 33.9336 6.80859C33.9336 6.53253 34.1576 6.30871 34.4336 6.30859Z" fill="white"/>
</g>
<path d="M117.479 106.416C117.478 112.451 112.586 117.343 106.552 117.343H11.6963C5.66144 117.343 0.769592 112.451 0.769531 106.416V71.958C0.76973 65.9233 5.66153 61.0312 11.6963 61.0312H106.552C112.586 61.0314 117.478 65.9234 117.479 71.958V106.416ZM115.479 71.958C115.478 67.028 111.482 63.0314 106.552 63.0312H11.6963C6.7661 63.0312 2.76973 67.0279 2.76953 71.958V106.416C2.76959 111.346 6.76601 115.343 11.6963 115.343H106.552C111.482 115.343 115.478 111.346 115.479 106.416V71.958ZM13.2988 92.1777C13.211 93.9109 11.7774 95.2891 10.0225 95.2891L9.85352 95.2852C8.12045 95.1972 6.74219 93.7637 6.74219 92.0088V86.3672C6.74219 84.6123 8.12045 83.1788 9.85352 83.0908L10.0225 83.0869C11.8341 83.0869 13.3027 84.5556 13.3027 86.3672V92.0088L13.2988 92.1777ZM12.3027 86.3672C12.3027 85.1079 11.2818 84.0869 10.0225 84.0869L9.78906 84.0986C8.63941 84.2155 7.74219 85.1867 7.74219 86.3672V92.0088C7.74219 93.2681 8.76318 94.289 10.0225 94.2891L10.2559 94.2773C11.3289 94.1683 12.182 93.3152 12.291 92.2422L12.3027 92.0088V86.3672ZM111.814 94.9424C111.814 95.2185 111.591 95.4424 111.314 95.4424C109.87 95.4424 108.698 94.271 108.698 92.8262V84.5547C108.698 83.1099 109.87 81.9385 111.314 81.9385C111.591 81.9385 111.814 82.1623 111.814 82.4385C111.814 82.7146 111.591 82.9385 111.314 82.9385C110.422 82.9385 109.698 83.6622 109.698 84.5547V92.8262C109.698 93.7187 110.422 94.4424 111.314 94.4424C111.591 94.4424 111.814 94.6663 111.814 94.9424Z" fill="white"/>
<g opacity="0.5">
<path d="M43.1021 32.2406C46.3566 17.4387 61.0685 8.06144 75.962 11.2959C90.8556 14.5303 100.291 29.1517 97.0365 43.9536" stroke="white" stroke-width="2" stroke-linecap="round" stroke-dasharray="4 4"/>
<path d="M86.9625 36.1035L95.7506 48.7697L107.475 38.7601" stroke="white" stroke-width="2" stroke-linecap="round" stroke-linejoin="round"/>
</g>
</svg>
